<svg width="455" height="241" viewBox="0 0 455 241" fill="none" xmlns="http://www.w3.org/2000/svg">
<g clip-path="url(#clip0_33_98)">
<path d="M70.168 226.607C82.212 228.035 427.19 225.107 427.19 225.107C461.897 192.364 467.31 139.607 425.077 115.988C390.765 96.814 405.043 69.177 401.469 46.9C396.555 16.246 349.837 -16.069 280.594 8.926C216.66 31.992 198.035 13.764 172.794 8.726C85.117 -8.7 40.615 12.582 52.3 62.732C66.441 123.415 34.981 132.632 27.455 156.194C15.6 193.275 35.341 222.483 70.168 226.607Z" fill="#F6F6EF"/>
<path d="M231 241C323.232 241 398 230.926 398 218.5C398 206.074 323.232 196 231 196C138.769 196 64.0001 206.074 64.0001 218.5C64.0001 230.926 138.769 241 231 241Z" fill="#464646"/>
<path d="M297.254 191.258L304.54 216.384C304.759 217.134 305.217 217.792 305.843 218.26C306.468 218.728 307.229 218.98 308.011 218.978C308.511 218.977 309.005 218.872 309.463 218.67C309.92 218.468 310.331 218.174 310.669 217.806C311.007 217.438 311.265 217.003 311.427 216.531C311.59 216.058 311.652 215.556 311.611 215.058L309.768 194.538C309.688 193.64 309.273 192.804 308.607 192.197C307.94 191.589 307.07 191.254 306.168 191.258H297.254Z" fill="#8C8C81"/>
<path d="M348.917 187.335L356.203 216.02C356.368 216.832 356.799 217.565 357.428 218.105C358.056 218.645 358.847 218.96 359.674 219C361.795 219 363.445 216.92 363.274 214.519L361.431 191.087C361.413 190.123 361.032 189.202 360.365 188.507C359.698 187.811 358.793 187.393 357.831 187.335H348.917Z" fill="#8C8C81"/>
<path d="M126.449 191.258L119.163 216.384C118.943 217.134 118.486 217.792 117.86 218.26C117.234 218.728 116.473 218.98 115.692 218.978C115.192 218.977 114.697 218.872 114.24 218.67C113.782 218.468 113.371 218.173 113.033 217.805C112.695 217.436 112.436 217.002 112.274 216.528C112.112 216.055 112.05 215.553 112.092 215.055L113.935 194.538C114.015 193.64 114.429 192.804 115.096 192.197C115.763 191.589 116.633 191.254 117.535 191.258H126.449Z" fill="#8C8C81"/>
<path d="M371.888 67H201.426V193.509H346.388C347.009 193.509 347.631 193.488 348.231 193.445C350.572 193.307 352.889 192.889 355.131 192.202C360.488 190.573 365.288 187.487 368.993 183.289C372.698 179.09 375.164 173.944 376.114 168.426L389.845 88.31C390.255 85.9267 390.186 83.4858 389.645 81.129C389.103 78.7723 388.097 76.5468 386.688 74.582C385.278 72.6171 383.492 70.952 381.433 69.6835C379.374 68.4151 377.084 67.5685 374.695 67.193C373.765 67.0633 372.827 66.9988 371.888 67Z" fill="#318269"/>
<path d="M344.138 100.68C346.513 100.68 348.832 99.9583 350.787 98.6107C352.743 97.2632 354.242 95.3532 355.088 93.134L360.574 78.792C361.787 75.6139 363.857 72.8339 366.554 70.7601C369.251 68.6864 372.469 67.3998 375.852 67.043C378.315 67.3274 380.694 68.111 382.843 69.346C384.993 70.5809 386.868 72.2412 388.354 74.2254C389.84 76.2097 390.906 78.4761 391.487 80.8863C392.068 83.2964 392.151 85.7997 391.731 88.243L378 168.362C376.799 175.374 373.157 181.736 367.718 186.322C362.279 190.909 355.393 193.424 348.279 193.424L289.094 193.488L321.129 100.659H344.143L344.138 100.68Z" fill="#318269"/>
<path d="M344.138 100.68C346.513 100.68 348.832 99.9583 350.787 98.6107C352.743 97.2632 354.242 95.3532 355.088 93.134L360.574 78.792C361.787 75.6139 363.857 72.8339 366.554 70.7601C369.251 68.6864 372.469 67.3998 375.852 67.043C378.315 67.3274 380.694 68.111 382.843 69.346C384.993 70.5809 386.868 72.2412 388.354 74.2254C389.84 76.2097 390.906 78.4761 391.487 80.8863C392.068 83.2964 392.151 85.7997 391.731 88.243L378 168.362C376.799 175.374 373.157 181.736 367.718 186.322C362.279 190.909 355.393 193.424 348.279 193.424L289.094 193.488L321.129 100.659H344.143L344.138 100.68Z" fill="black" fill-opacity="0.3"/>
<path d="M201.426 150.161V175.673H307.41C307.699 175.671 307.976 175.555 308.181 175.351C308.385 175.146 308.501 174.869 308.503 174.58V151.254C308.501 150.965 308.385 150.688 308.181 150.483C307.976 150.279 307.699 150.163 307.41 150.161H201.426Z" fill="#318269"/>
<path d="M284.933 165.961H201.427V193.509H292.904C294.535 193.49 296.161 193.339 297.768 193.059C299.942 192.684 302.069 192.073 304.111 191.237C308.659 189.365 312.716 186.474 315.971 182.787C319.225 179.1 321.59 174.715 322.882 169.97L337.453 117.638C338.439 114.201 338.058 110.517 336.388 107.355C334.719 104.194 331.89 101.801 328.496 100.678C328.41 100.657 328.346 100.635 328.26 100.614C326.551 100.128 324.763 99.9875 323 100.201C321.236 100.415 319.533 100.979 317.991 101.86C316.448 102.741 315.097 103.921 314.016 105.33C312.935 106.74 312.147 108.352 311.697 110.07L300.533 150.16L299.225 154.878C298.384 158.035 296.531 160.829 293.949 162.831C291.367 164.833 288.2 165.933 284.933 165.961Z" fill="#E16E4C"/>
<path d="M284.933 165.961H201.427V193.509H292.904C294.535 193.49 296.161 193.339 297.768 193.059C299.942 192.684 302.069 192.073 304.111 191.237C308.659 189.365 312.716 186.474 315.971 182.787C319.225 179.1 321.59 174.715 322.882 169.97L337.453 117.638C338.439 114.201 338.058 110.517 336.388 107.355C334.719 104.194 331.89 101.801 328.496 100.678C328.41 100.657 328.346 100.635 328.26 100.614C326.551 100.128 324.763 99.9875 323 100.201C321.236 100.415 319.533 100.979 317.991 101.86C316.448 102.741 315.097 103.921 314.016 105.33C312.935 106.74 312.147 108.352 311.697 110.07L300.533 150.16L299.225 154.878C298.384 158.035 296.531 160.829 293.949 162.831C291.367 164.833 288.2 165.933 284.933 165.961Z" fill="#276854"/>
<path d="M75.8989 100.765L94.0699 150.245L103.413 175.693L109.134 191.279L109.948 193.509V193.53H219.404V67.021H132.555C128.817 67.0192 125.168 68.1544 122.091 70.2758C119.014 72.3971 116.655 75.4043 115.327 78.898L109.863 93.24C109.017 95.4592 107.518 97.3692 105.562 98.7167C103.607 100.064 101.288 100.786 98.9129 100.786H75.8989V100.765Z" fill="#318269"/>
<path d="M93.3419 151.275V174.601C93.3438 174.89 93.4595 175.167 93.6641 175.372C93.8687 175.576 94.1456 175.692 94.4349 175.694H219.426V150.182H94.4349C94.3108 150.182 94.1877 150.204 94.0709 150.246C93.8544 150.315 93.6662 150.453 93.5347 150.639C93.4033 150.824 93.3356 151.048 93.3419 151.275Z" fill="#318269"/>
<path d="M64.6469 118.087L81.2109 170.998C82.9288 176.63 86.1726 181.675 90.5826 185.576C94.9927 189.477 100.397 192.08 106.196 193.098C107.45 193.314 108.717 193.443 109.989 193.484C110.418 193.505 110.846 193.505 111.275 193.505H219.447V165.96H118.627C115.444 165.93 112.353 164.884 109.806 162.975C107.258 161.066 105.386 158.394 104.463 155.348L102.834 150.16L90.1469 109.641C89.5176 107.575 88.4036 105.689 86.8977 104.141C85.3918 102.593 83.5377 101.427 81.4899 100.741C78.8267 99.851 75.9462 99.851 73.2829 100.741C69.8676 101.938 67.054 104.42 65.4411 107.66C63.8282 110.899 63.5432 114.64 64.6469 118.087Z" fill="#E16E4C"/>
<path d="M64.6469 118.087L81.2109 170.998C82.9288 176.63 86.1726 181.675 90.5826 185.576C94.9927 189.477 100.397 192.08 106.196 193.098C107.45 193.314 108.717 193.443 109.989 193.484C110.418 193.505 110.846 193.505 111.275 193.505H219.447V165.96H118.627C115.444 165.93 112.353 164.884 109.806 162.975C107.258 161.066 105.386 158.394 104.463 155.348L102.834 150.16L90.1469 109.641C89.5176 107.575 88.4036 105.689 86.8977 104.141C85.3918 102.593 83.5377 101.427 81.4899 100.741C78.8267 99.851 75.9462 99.851 73.2829 100.741C69.8676 101.938 67.054 104.42 65.4411 107.66C63.8282 110.899 63.5432 114.64 64.6469 118.087Z" fill="#276854"/>
<path d="M105.347 68.162C104.017 71.114 103.288 74.321 102.047 77.316C101.716 78.25 101.171 79.0938 100.456 79.78C99.4481 80.651 98.0751 80.906 96.8561 81.437C94.9575 82.3294 93.4476 83.8809 92.6072 85.8031C91.7668 87.7253 91.6531 89.8872 92.2871 91.887C92.7916 92.8167 93.029 93.8678 92.9731 94.924C92.5871 96.666 90.3991 97.218 89.1341 98.492C87.3751 100.276 87.8041 103.419 89.4771 105.267C91.1501 107.136 93.7021 107.943 96.1691 108.41C97.0097 108.483 97.8162 108.776 98.5071 109.26C98.9353 109.696 99.2902 110.198 99.5581 110.747C100.635 112.503 102.194 113.913 104.049 114.809C105.905 115.705 107.978 116.049 110.023 115.8C114.849 115.142 118.796 111.276 123.623 110.83C127.355 110.49 130.98 112.274 134.734 112.295C136.389 112.296 138.026 111.954 139.543 111.293C141.06 110.631 142.424 109.664 143.55 108.451C144.658 107.234 145.498 105.798 146.015 104.236C146.532 102.673 146.714 101.02 146.55 99.382C146.336 97.282 145.542 95.177 145.971 93.095C146.529 90.461 148.952 88.55 149.746 85.98C150.754 82.645 148.781 79.12 146.357 76.571C143.933 74.022 140.974 71.9 139.322 68.821C138.657 67.589 138.228 66.251 137.477 65.104C135.825 62.555 132.844 61.217 129.927 60.304C120.962 57.522 109.572 58.775 105.347 68.162Z" fill="#1A2541"/>
<path d="M149.619 98.3C149.619 98.3 112.319 99.426 91.4701 108.134C91.4701 108.134 92.3701 147.511 109.895 165.84C109.895 165.84 129.395 167.093 163.153 155.433C163.153 155.454 163.046 103.78 149.619 98.3Z" fill="#0A444A"/>
<path d="M295.087 158.47C295.087 158.47 303.259 158.81 306.348 160.318C309.437 161.826 317.673 164.226 318.531 162.697C319.389 161.168 319.518 156.665 323.271 152.033C327.024 147.401 331.4 134.959 327.432 134.067C323.464 133.175 316.557 150.187 309.608 150.442C305.441 150.6 301.268 150.295 297.168 149.533L295.087 158.47Z" fill="#917760"/>
<path d="M248.692 125.422C248.692 125.422 252.574 132.558 252.832 135.956C253.09 139.354 255.232 147.595 256.993 147.556C258.752 147.492 262.72 145.326 268.661 146.156C274.602 146.986 287.644 144.346 286.4 140.523C285.156 136.7 266.838 139.482 263.063 133.705C260.797 130.243 258.94 126.53 257.529 122.64L248.692 125.422Z" fill="#917760"/>
<path d="M157.104 110.428C157.104 110.428 166.37 120.708 172.097 123.936C177.802 127.164 172.29 129.309 172.29 129.309L164.74 133.557L151.613 125.975L154.313 113.21L157.104 110.428Z" fill="#917760"/>
<path d="M154.315 161.699C154.315 161.699 161.007 170.747 177.373 171.936C193.739 173.125 248.929 157.451 253.497 158.046C258.044 158.641 298.54 161.996 298.54 161.996L301.929 143.858C301.929 143.858 258.623 137.741 243.716 139.315C228.809 140.865 196.163 142.076 196.163 142.076C196.163 142.076 221.452 113.976 226.707 115.039C231.962 116.102 249.529 136.955 249.529 136.955L264.265 131.029C264.265 131.029 252.682 94.626 228.337 92.396C203.992 90.145 167.786 135.49 167.786 135.49L154.315 161.699Z" fill="#F59369"/>
<path d="M117.166 106.668C117.166 106.668 106.377 109.157 102.473 117.691C98.5731 126.208 97.9041 140.608 97.9041 140.608L114.248 141.203L114.934 135.426C121.358 142.39 128.481 148.675 136.192 154.18C149.555 163.865 156.292 165.88 156.292 165.88L176.13 138.93C176.13 138.93 163.73 130.647 159.335 126.657C159.335 126.657 160.708 121.241 157.362 117.482L161.462 110.792C161.462 110.792 147.924 99.557 138.315 101.104C128.706 102.633 124.094 105.798 117.166 106.668Z" fill="white"/>
<path d="M226.857 106.902L173.77 108.792L158.52 147.829L211.607 145.96L226.857 106.902Z" fill="#464646"/>
<path d="M133.421 148.723L168.951 147.455L168.866 145.121L133.337 146.388L133.421 148.723Z" fill="#464646"/>
<path d="M195.584 126.697C195.559 126.08 195.78 125.478 196.198 125.024C196.617 124.569 197.198 124.299 197.815 124.273C198.433 124.243 199.037 124.459 199.496 124.873C199.955 125.288 200.231 125.867 200.263 126.485C200.287 127.102 200.066 127.704 199.647 128.157C199.228 128.611 198.646 128.881 198.029 128.906C197.412 128.935 196.809 128.72 196.351 128.306C195.893 127.892 195.617 127.313 195.584 126.697Z" fill="white"/>
<path d="M102.966 140.778C102.966 140.778 102.301 159.32 109.208 161.996C116.115 164.651 140.138 146.151 140.138 146.151L136.106 142.69L113.97 149.55L113.198 141.16L102.966 140.778Z" fill="#917760"/>
<path d="M140.116 146.151C140.116 146.151 147.752 144.282 149.06 142.774C149.06 142.774 152.449 145.705 153.693 145.662C154.937 145.619 151.42 142.69 151.42 142.69C151.42 142.69 154.23 145.09 154.766 144.09C155.302 143.09 150.866 140.458 150.866 140.458C150.866 140.458 155.023 141.651 155.474 141.628C155.925 141.605 156.117 140.46 151.289 138.697L148.029 138.039C148.029 138.039 155.109 136.424 154.573 135.384C154.289 134.831 147.344 136.106 144.32 137.338C141.296 138.57 134.368 143.986 134.368 143.986L140.116 146.151Z" fill="#917760"/>
<path d="M132.673 134.237C134.736 134.205 136.772 133.757 138.658 132.92C145.907 129.862 143.912 123.469 143.891 123.405L143.441 123.554C143.526 123.805 145.328 129.605 138.486 132.474C131.558 135.384 127.418 132.304 127.375 132.283L127.075 132.644C128.719 133.769 130.684 134.328 132.673 134.237Z" fill="#80B5FA"/>
<path d="M157.212 117.627L157.512 117.266C154.338 114.526 148.546 113.549 148.312 113.507L148.226 113.974C148.289 113.974 154.144 114.972 157.212 117.627Z" fill="#80B5FA"/>
<path d="M137.607 80.969C137.607 80.969 138.787 79.142 139.752 79.869C142.218 81.713 139.623 84.24 137.993 84.796L137.607 80.969Z" fill="#685C45"/>
<path d="M120.469 60.75C113.005 61.345 108.522 65.932 108.243 73.344C108.15 75.6798 108.621 78.0037 109.616 80.119C111.739 85.219 113.498 89.337 115.665 92.331C117.874 95.3229 118.856 99.0457 118.411 102.738L117.939 106.455C139.494 111.744 130.357 102.89 130.357 102.89L130.271 97.69C139.623 96.452 138.122 79.334 138.057 74.258H138.036V73.685C137.907 65.231 129.156 60.07 120.469 60.75Z" fill="#917760"/>
<path d="M126.839 67.823C126.839 67.823 117.873 79.717 111.674 84.923L107.384 77.808C107.384 77.808 105.326 59.561 120.769 60.262C136.191 60.984 139.258 67.079 138.229 78.442C138.209 78.463 134.582 68.863 126.839 67.823Z" fill="#1A2541"/>
<path d="M114.227 84.198C113.97 83.7268 113.551 83.3647 113.047 83.179C112.018 82.775 110.192 82.351 108.972 83.604C107.172 85.452 110.924 90.188 114.527 87.746C114.506 87.77 115.535 86.726 114.227 84.198Z" fill="#917760"/>
<path d="M161.108 215.937C161.108 215.937 157.897 222.81 156.001 225.871C154.105 228.932 158.201 231.63 156.044 233.279C153.887 234.928 151.239 232.316 150.506 228.612C149.773 224.908 150.398 217.072 150.398 217.072L161.108 215.937Z" fill="#95704F"/>
<path d="M186.147 170.206C184.983 168.943 180.587 158.216 184.66 157.231C188.733 156.246 189.314 158.516 188.668 161.92C188.322 164.312 188.447 166.749 189.034 169.093L186.147 170.206Z" fill="#95704F"/>
<path d="M187.7 191.702C188.023 186.756 178.068 177.402 182.27 171.662C186.47 165.946 192.979 166.245 197.806 165.796C202.633 165.347 203.859 160.208 206.165 161.128C208.471 162.048 206.965 171.597 200.433 181.36L201.209 190.309C203.183 190.856 205.259 190.922 207.264 190.502C210.022 189.731 213.836 186.648 214.978 187.034C216.098 187.441 216.96 190.417 213.987 192.793C210.987 195.169 204.441 196.393 204.441 196.393C204.441 196.393 210.41 200.525 213.491 200.593C216.572 200.661 218.4 198.167 219.8 201.1C221.2 204.033 214.779 206.838 210.405 207.052C206.973 207.026 203.561 206.537 200.26 205.597C195.186 211.96 188.328 216.664 180.565 219.107C173.175 221.409 165.282 221.558 157.811 219.535C157.811 219.535 152.747 223.367 148.158 224.823C143.569 226.279 148.115 233.818 144.5 234.885C140.88 235.977 138.51 228.997 139.156 226C139.802 223.003 143.466 219.127 143.703 216.43C143.718 213.691 143.509 210.956 143.078 208.251C143.078 208.251 134.243 202.751 132.671 197.418C131.076 192.087 132.391 184.957 136.14 185.343C139.889 185.729 136.183 203.263 145.125 203.756C147.732 201.513 150.882 199.992 154.261 199.346C159.734 198.383 163.761 204.591 173.352 200.973C182.915 197.354 187.7 191.702 187.7 191.702Z" fill="#A28164"/>
<path d="M207.63 159.737C207.417 159.189 206.997 158.747 206.46 158.507C205.924 158.266 205.315 158.247 204.764 158.452C204.215 158.659 203.771 159.075 203.529 159.609C203.287 160.143 203.266 160.751 203.472 161.3C203.685 161.847 204.105 162.289 204.641 162.529C205.177 162.769 205.786 162.789 206.337 162.584C206.885 162.377 207.33 161.961 207.572 161.428C207.814 160.894 207.835 160.286 207.63 159.737Z" fill="#010131"/>
<path d="M186.47 174.317C186.858 175.644 179.532 175.452 178.756 178.513C177.98 181.574 172.615 188.683 169.016 185.213C165.417 181.743 171.322 175.793 176.795 173.713C182.268 171.662 185.63 171.405 186.47 174.317Z" fill="#95704F"/>
</g>
<defs>
<clipPath id="clip0_33_98">
<rect width="455" height="241" fill="white"/>
</clipPath>
</defs>
</svg>
