<svg width="174" height="122" viewBox="0 0 174 122" fill="none" xmlns="http://www.w3.org/2000/svg">
<g clip-path="url(#clip0_10_193)">
<path d="M17.2478 120.917C17.2478 120.917 -9.83022 94.679 3.86978 71.161C17.7178 47.402 6.51578 35.729 17.4458 24.017C26.4458 14.376 38.2188 25.911 47.7148 18.37C57.2108 10.829 78.7248 -0.809016 87.0098 18.37C95.2948 37.549 129.717 13.317 146.9 19.787C167.326 27.534 173.41 41.446 168.068 63.379C163.815 80.906 180.185 118.403 162.825 118.403C143.342 118.403 17.2478 120.917 17.2478 120.917Z" fill="#F6F6EF"/>
<path d="M106.346 26.547C105.934 28.894 106.825 31.24 107.375 33.56C107.925 35.88 108.029 38.606 106.396 40.339C105.222 41.586 103.336 42.083 102.405 43.522C101.635 44.711 101.699 46.282 101 47.514C99.678 49.84 96.443 49.95 93.774 49.873C93.332 49.86 92.874 49.86 92.412 49.883C90.076 49.994 87.644 50.636 86.847 52.724C86.526 53.565 86.495 54.603 85.785 55.154C85.4863 55.3601 85.1482 55.5021 84.792 55.571C81.6433 56.3713 78.3386 56.3223 75.215 55.429C72.554 54.664 70.064 53.293 67.328 52.866C64.128 52.366 60.628 53.137 57.509 52.707C56.2486 52.5639 55.0383 52.132 53.972 51.445C53.0136 50.7915 52.2353 49.9072 51.7087 48.8736C51.1821 47.84 50.9243 46.6905 50.959 45.531C51.001 44.457 51.259 43.231 50.547 42.423C50.0435 41.9879 49.453 41.6651 48.815 41.476C47.5266 40.8395 46.5326 39.7315 46.0392 38.3819C45.5458 37.0322 45.5909 35.5444 46.165 34.227C47.098 32.295 49.2 30.827 49.217 28.679C49.229 26.931 47.782 25.254 48.317 23.589C48.7137 22.7066 49.3786 21.9718 50.217 21.489C52.1803 20.0743 54.1443 18.6613 56.109 17.25C57.156 16.495 58.299 15.583 58.424 14.298C58.503 13.487 58.147 12.688 58.164 11.872C58.204 10.137 59.894 8.89101 61.549 8.37801C63.204 7.86501 65.009 7.77802 66.529 6.94501C66.7819 6.82472 67.0013 6.64408 67.168 6.41901C67.3462 6.02291 67.4529 5.59834 67.483 5.16501C67.828 3.60001 69.583 3.00001 71.255 2.90001C71.5691 2.88332 71.8839 2.88332 72.198 2.90001C72.812 2.93101 73.462 2.97101 74.098 2.95901C74.73 3.01625 75.3667 2.93046 75.961 2.70801C76.5553 2.48555 77.0919 2.13215 77.531 1.67401C77.941 1.15701 78.189 0.462015 78.776 0.162015C79.3074 -0.0370222 79.8907 -0.049365 80.43 0.127015C82.3475 0.363772 84.219 0.884823 85.983 1.67301C87.983 2.77301 89.526 3.97301 91.852 4.40801C92.7279 4.51097 93.5904 4.70673 94.425 4.99201C98.562 6.73401 98.012 13.692 102.043 15.661C103.763 16.504 106.043 16.239 107.358 17.628C108.443 18.771 108.393 20.594 107.92 22.096C107.299 23.5437 106.774 25.0306 106.348 26.547" fill="#060633"/>
<path d="M70.9698 119.495H25.2088C25.0539 119.495 24.9005 119.464 24.7574 119.405C24.6143 119.346 24.4842 119.259 24.3748 119.149C24.2653 119.04 24.1784 118.91 24.1192 118.766C24.0601 118.623 24.0297 118.47 24.0298 118.315V72.556C24.0298 72.2432 24.154 71.9432 24.375 71.7219C24.5961 71.5007 24.896 71.3762 25.2088 71.376H70.9698C71.2826 71.3762 71.5824 71.5007 71.8035 71.7219C72.0246 71.9432 72.1488 72.2432 72.1488 72.556V118.315C72.1488 118.628 72.0246 118.928 71.8035 119.149C71.5824 119.37 71.2825 119.494 70.9698 119.494" fill="#008FE0"/>
<path d="M74.6408 45.713C74.6408 45.713 55.6798 51.195 50.6358 57.362C45.5918 63.529 39.4578 94.431 41.1608 102.622C42.8638 110.813 76.5928 119.48 76.5928 119.48C76.5928 119.48 92.3788 123.123 102.372 119.48L101.917 100.368C101.917 100.368 106.233 108.984 115.772 108.984C125.311 108.984 138.712 83.191 138.712 83.191L131.671 77.691C131.671 77.691 122.22 86.937 115.871 88.667C115.549 88.7569 115.213 88.7819 114.881 88.7408C114.55 88.6997 114.23 88.5931 113.94 88.4274C113.65 88.2616 113.395 88.0399 113.192 87.7752C112.988 87.5104 112.839 87.2078 112.753 86.885C110.987 80.226 105.029 58.929 99.8708 53.936C93.7408 47.997 74.6408 45.713 74.6408 45.713Z" fill="white"/>
<path d="M102.258 100.247C102.228 100.246 102.2 100.234 102.178 100.213C102.157 100.191 102.145 100.163 102.145 100.133L101.708 86.733C101.707 86.7118 101.712 86.6908 101.722 86.672C103.073 84.0174 103.849 81.1078 104 78.133C104 73.934 99.4949 69.218 99.4489 69.17C99.4272 69.1476 99.415 69.1176 99.415 69.0865C99.415 69.0553 99.4272 69.0253 99.4489 69.003C99.4592 68.992 99.4717 68.9833 99.4855 68.9774C99.4994 68.9714 99.5143 68.9684 99.5294 68.9684C99.5444 68.9684 99.5593 68.9714 99.5732 68.9774C99.587 68.9833 99.5995 68.992 99.6099 69.003C99.6569 69.053 104.228 73.837 104.228 78.133C104.079 81.1356 103.298 84.0729 101.936 86.753L102.372 100.125C102.373 100.14 102.37 100.155 102.365 100.17C102.36 100.184 102.352 100.197 102.342 100.209C102.332 100.22 102.32 100.229 102.306 100.236C102.292 100.242 102.277 100.246 102.262 100.247H102.258Z" fill="#060633"/>
<path d="M77.5771 4.82398C74.3565 4.97238 71.3002 6.28891 68.9799 8.52733C66.6596 10.7658 65.2341 13.7728 64.9701 16.986C64.8091 19.0692 65.1486 21.1606 65.9601 23.086C67.6791 27.717 69.1031 31.449 70.9171 34.186C72.7771 36.9349 73.5228 40.2879 73.0031 43.566L72.4511 46.876C80.0601 50.884 83.5011 47.763 83.5011 47.763L83.6911 39.463C92.0381 38.663 91.2791 23.332 91.3821 18.807H91.3691C91.3801 18.637 91.3901 18.468 91.3941 18.297C91.4319 16.488 91.0977 14.6905 90.4122 13.016C89.7267 11.3414 88.7046 9.82556 87.4091 8.56235C86.1136 7.29913 84.5725 6.3155 82.8812 5.67244C81.1899 5.02937 79.3846 4.74058 77.5771 4.82398Z" fill="#AB8350"/>
<path d="M76.5762 18.3063C74.9715 19.9713 73.4697 21.7339 72.0792 23.5844C70.5708 25.5107 69.0031 27.5597 68.621 30C66.6284 28.1621 65.0956 25.8747 64.1481 23.3249C63.5969 22.1904 63.2167 20.9794 63.0199 19.7318C62.9253 17.9418 63.169 16.15 63.7379 14.4517C64.3322 12.2243 64.9798 9.90565 66.5042 8.20746C67.5568 7.12139 68.8227 6.26881 70.2209 5.70428C73.4056 4.21139 76.9518 3.68307 80.4287 4.18352C82.1634 4.45019 83.828 5.06272 85.3253 5.98531C86.8226 6.90791 88.1225 8.12207 89.1491 9.55688C91.7194 13.3243 91.9055 18.2192 92 22.8129C91.4536 20.9321 90.5095 19.193 89.2326 17.7153C88.5331 16.661 87.6633 15.7323 86.6593 14.9678C84.8905 13.7765 84.3786 14.0178 81.2703 11.7549C80.3844 14.5643 78.6206 16.2695 76.5742 18.3063" fill="#060633"/>
<path d="M70.0252 26.963C69.8098 26.5508 69.4519 26.2309 69.0182 26.063C68.1182 25.698 66.5182 25.285 65.3862 26.302C63.7312 27.792 66.8922 31.905 70.1652 29.963C70.1652 29.963 71.1072 29.117 70.0252 26.963Z" fill="#FB9391"/>
<path d="M84.1129 105.059L57.7129 93.844L57.7249 93.78L61.3859 72.98L61.5549 73.01L57.9049 93.74L84.1779 104.902L84.1129 105.059Z" fill="#060633"/>
<path d="M84.3462 105.371C86.4385 103.8 88.6345 102.372 90.9192 101.097C92.8632 100.236 94.1122 97.95 94.9582 98.85C95.8042 99.75 93.0182 102.759 93.0182 102.759C93.0182 102.759 97.3312 103.014 98.6692 102.889C100.007 102.764 102.454 103.153 102.62 104.131C102.786 105.109 96.3202 105.255 96.3202 105.255C96.3202 105.255 101.776 105.67 102.12 106.539C102.464 107.408 95.4462 107.907 95.4462 107.907C95.4462 107.907 101.287 108.063 101.735 108.478C102.183 108.893 101.673 109.486 99.5912 109.936C98.168 110.214 96.719 110.338 95.2692 110.305C96.8024 110.442 98.3277 110.656 99.8392 110.947C100.313 111.171 100.804 111.826 97.6512 112.164C94.4982 112.502 87.5652 112.115 84.1782 110.506L84.3462 105.371Z" fill="#AB8350"/>
<path d="M70.5061 26.15C70.8231 23.06 69.1301 20.339 66.7151 20.071C64.3001 19.803 62.0831 22.091 61.7621 25.18C61.4411 28.269 63.1381 30.99 65.5531 31.257C67.9681 31.524 70.1851 29.237 70.5061 26.15Z" fill="#008FE0"/>
<path d="M73.7529 3.276C73.1858 3.87941 72.6769 4.53498 72.2329 5.234C71.8604 5.81332 71.5227 6.41439 71.2219 7.034C69.0019 11.579 68.3789 17.234 68.0059 20.25C67.9359 20.82 67.8739 21.297 67.8129 21.65L65.7329 21.549C65.7589 20.981 65.7949 20.428 65.8329 19.887C66.0704 16.5254 66.6867 13.2014 67.6699 9.978C68.0455 8.76723 68.4909 7.57923 69.0039 6.42C69.4806 5.29903 70.0668 4.22784 70.7539 3.222C71.0919 3.208 71.4279 3.208 71.7479 3.218C72.3949 3.249 73.0799 3.288 73.7479 3.276" fill="#008FE0"/>
<path d="M77.3212 35.287C73.0519 33.209 69.3507 30.1262 66.5352 26.303L67.4192 25.663C70.1376 29.3117 73.6826 32.2638 77.7632 34.277L77.3212 35.287Z" fill="#008FE0"/>
<path d="M77.7462 36.052L77.1222 35.908C76.968 35.8838 76.8206 35.8279 76.6892 35.7438C76.5577 35.6598 76.4451 35.5494 76.3585 35.4196C76.2719 35.2898 76.2131 35.1435 76.1858 34.9899C76.1586 34.8363 76.1634 34.6787 76.2002 34.527C76.3166 34.221 76.5424 33.969 76.8339 33.8199C77.1254 33.6708 77.4619 33.6352 77.7782 33.72L78.4032 33.864C78.5572 33.8884 78.7045 33.9444 78.8359 34.0285C78.9672 34.1126 79.0797 34.223 79.1662 34.3528C79.2527 34.4825 79.3114 34.6288 79.3386 34.7823C79.3658 34.9359 79.3609 35.0935 79.3242 35.245C79.2078 35.5509 78.9821 35.8027 78.6908 35.9517C78.3995 36.1008 78.0633 36.1365 77.7472 36.052" fill="#4851EC"/>
<path d="M174 121.099H12V109.871H173.326C173.648 113.571 173.881 117.305 174 121.099Z" fill="#1A2541"/>
<path d="M149.139 79.456L107.045 79.396L93.8018 110.613L135.897 110.673L149.139 79.456Z" fill="#464646"/>
<path d="M73.752 108.267L101.821 108.3V109.871L73.752 109.838V108.267Z" fill="#464646"/>
<path d="M124.277 94.244C124.276 93.8488 124.392 93.4621 124.61 93.1328C124.828 92.8034 125.139 92.5462 125.504 92.3934C125.868 92.2407 126.27 92.1994 126.658 92.2747C127.046 92.3499 127.403 92.5385 127.684 92.8164C127.965 93.0944 128.157 93.4493 128.236 93.8365C128.315 94.2236 128.278 94.6256 128.129 94.9916C127.981 95.3577 127.727 95.6714 127.4 95.8932C127.072 96.1151 126.687 96.235 126.292 96.238C126.028 96.24 125.767 96.1899 125.523 96.0906C125.279 95.9914 125.057 95.8449 124.87 95.6596C124.683 95.4744 124.534 95.2539 124.432 95.011C124.33 94.768 124.278 94.5074 124.277 94.244Z" fill="white"/>
</g>
<defs>
<clipPath id="clip0_10_193">
<rect width="174" height="121.099" fill="white"/>
</clipPath>
</defs>
</svg>
